<mxfile host="app.diagrams.net" modified="2021-05-02T20:39:45.568Z" agent="5.0 (Windows NT 10.0; Win64; x64) AppleWebKit/537.36 (KHTML, like Gecko) Chrome/90.0.4430.93 Safari/537.36 Edg/90.0.818.51" etag="bBMA5NFBMtMq_gwQPi3q" version="14.6.9" type="github">
  <diagram id="qJVGM02EKoq33CPQ10DR" name="Page-1">
    <mxGraphModel dx="416" dy="850" grid="1" gridSize="10" guides="1" tooltips="1" connect="1" arrows="1" fold="1" page="1" pageScale="1" pageWidth="827" pageHeight="1169" math="0" shadow="0">
      <root>
        <mxCell id="0" />
        <mxCell id="1" parent="0" />
        <mxCell id="TXIqby-uAPm9IPuSx5B3-51" value="" style="ellipse;html=1;shape=startState;fillColor=#000000;strokeColor=#ff0000;" vertex="1" parent="1">
          <mxGeometry x="995" y="30" width="30" height="30" as="geometry" />
        </mxCell>
        <mxCell id="TXIqby-uAPm9IPuSx5B3-52" value="" style="edgeStyle=orthogonalEdgeStyle;html=1;verticalAlign=bottom;endArrow=open;endSize=8;strokeColor=#ff0000;entryX=0.5;entryY=0;entryDx=0;entryDy=0;" edge="1" parent="1" target="TXIqby-uAPm9IPuSx5B3-53">
          <mxGeometry relative="1" as="geometry">
            <mxPoint x="1010" y="-2" as="targetPoint" />
            <mxPoint x="1009.9999999999998" y="58" as="sourcePoint" />
          </mxGeometry>
        </mxCell>
        <mxCell id="TXIqby-uAPm9IPuSx5B3-53" value="Create Recipe" style="rounded=1;whiteSpace=wrap;html=1;arcSize=40;fontColor=#000000;fillColor=#ffffc0;strokeColor=#ff0000;" vertex="1" parent="1">
          <mxGeometry x="950" y="78" width="120" height="40" as="geometry" />
        </mxCell>
        <mxCell id="TXIqby-uAPm9IPuSx5B3-54" value="" style="edgeStyle=orthogonalEdgeStyle;html=1;verticalAlign=bottom;endArrow=open;endSize=8;strokeColor=#ff0000;entryX=0.5;entryY=0;entryDx=0;entryDy=0;" edge="1" parent="1" source="TXIqby-uAPm9IPuSx5B3-53" target="TXIqby-uAPm9IPuSx5B3-55">
          <mxGeometry relative="1" as="geometry">
            <mxPoint x="1010" y="98" as="targetPoint" />
          </mxGeometry>
        </mxCell>
        <mxCell id="TXIqby-uAPm9IPuSx5B3-55" value="Enter name of recipe" style="rounded=1;whiteSpace=wrap;html=1;arcSize=40;fontColor=#000000;fillColor=#ffffc0;strokeColor=#ff0000;" vertex="1" parent="1">
          <mxGeometry x="950" y="138" width="120" height="40" as="geometry" />
        </mxCell>
        <mxCell id="TXIqby-uAPm9IPuSx5B3-56" value="" style="edgeStyle=orthogonalEdgeStyle;html=1;verticalAlign=bottom;endArrow=open;endSize=8;strokeColor=#ff0000;" edge="1" parent="1" source="TXIqby-uAPm9IPuSx5B3-55">
          <mxGeometry relative="1" as="geometry">
            <mxPoint x="1010" y="198" as="targetPoint" />
          </mxGeometry>
        </mxCell>
        <mxCell id="TXIqby-uAPm9IPuSx5B3-57" value="Click on Image" style="rounded=1;whiteSpace=wrap;html=1;arcSize=40;fontColor=#000000;fillColor=#ffffc0;strokeColor=#ff0000;" vertex="1" parent="1">
          <mxGeometry x="950" y="198" width="120" height="40" as="geometry" />
        </mxCell>
        <mxCell id="TXIqby-uAPm9IPuSx5B3-58" value="" style="edgeStyle=orthogonalEdgeStyle;html=1;verticalAlign=bottom;endArrow=open;endSize=8;strokeColor=#ff0000;" edge="1" parent="1" source="TXIqby-uAPm9IPuSx5B3-57">
          <mxGeometry relative="1" as="geometry">
            <mxPoint x="1135" y="218" as="targetPoint" />
          </mxGeometry>
        </mxCell>
        <mxCell id="TXIqby-uAPm9IPuSx5B3-59" value="Show Dialog: Select Image from Camera or Gallery" style="rounded=1;whiteSpace=wrap;html=1;arcSize=40;fontColor=#000000;fillColor=#ffffc0;strokeColor=#ff0000;" vertex="1" parent="1">
          <mxGeometry x="1135" y="198" width="120" height="40" as="geometry" />
        </mxCell>
        <mxCell id="TXIqby-uAPm9IPuSx5B3-60" value="" style="edgeStyle=orthogonalEdgeStyle;html=1;verticalAlign=bottom;endArrow=open;endSize=8;strokeColor=#ff0000;entryX=1;entryY=0.5;entryDx=0;entryDy=0;" edge="1" parent="1" source="TXIqby-uAPm9IPuSx5B3-59" target="TXIqby-uAPm9IPuSx5B3-61">
          <mxGeometry relative="1" as="geometry">
            <mxPoint x="1335" y="298" as="targetPoint" />
            <Array as="points">
              <mxPoint x="1195" y="280" />
            </Array>
          </mxGeometry>
        </mxCell>
        <mxCell id="TXIqby-uAPm9IPuSx5B3-61" value="Image Option" style="rhombus;whiteSpace=wrap;html=1;fillColor=#ffffc0;strokeColor=#ff0000;" vertex="1" parent="1">
          <mxGeometry x="975" y="260" width="80" height="40" as="geometry" />
        </mxCell>
        <mxCell id="TXIqby-uAPm9IPuSx5B3-62" value="Gallery" style="edgeStyle=orthogonalEdgeStyle;html=1;align=left;verticalAlign=bottom;endArrow=open;endSize=8;strokeColor=#ff0000;entryX=0;entryY=0.5;entryDx=0;entryDy=0;" edge="1" parent="1" source="TXIqby-uAPm9IPuSx5B3-61" target="TXIqby-uAPm9IPuSx5B3-64">
          <mxGeometry x="-0.8819" y="32" relative="1" as="geometry">
            <mxPoint x="1335" y="330" as="targetPoint" />
            <Array as="points">
              <mxPoint x="1015" y="320" />
            </Array>
            <mxPoint x="25" y="52" as="offset" />
          </mxGeometry>
        </mxCell>
        <mxCell id="TXIqby-uAPm9IPuSx5B3-63" value="Camera" style="edgeStyle=orthogonalEdgeStyle;html=1;align=left;verticalAlign=top;endArrow=open;endSize=8;strokeColor=#ff0000;" edge="1" parent="1" source="TXIqby-uAPm9IPuSx5B3-61">
          <mxGeometry x="-0.9224" y="46" relative="1" as="geometry">
            <mxPoint x="1335" y="400" as="targetPoint" />
            <Array as="points">
              <mxPoint x="955" y="280" />
              <mxPoint x="955" y="400" />
            </Array>
            <mxPoint x="-91" y="10" as="offset" />
          </mxGeometry>
        </mxCell>
        <mxCell id="TXIqby-uAPm9IPuSx5B3-64" value="Open Camera" style="rounded=1;whiteSpace=wrap;html=1;arcSize=40;fontColor=#000000;fillColor=#ffffc0;strokeColor=#ff0000;" vertex="1" parent="1">
          <mxGeometry x="1335" y="300" width="120" height="40" as="geometry" />
        </mxCell>
        <mxCell id="TXIqby-uAPm9IPuSx5B3-65" value="" style="edgeStyle=orthogonalEdgeStyle;html=1;verticalAlign=bottom;endArrow=open;endSize=8;strokeColor=#ff0000;entryX=1;entryY=0.75;entryDx=0;entryDy=0;" edge="1" parent="1" source="TXIqby-uAPm9IPuSx5B3-64" target="TXIqby-uAPm9IPuSx5B3-68">
          <mxGeometry relative="1" as="geometry">
            <mxPoint x="1295" y="490" as="targetPoint" />
            <Array as="points">
              <mxPoint x="1485" y="320" />
              <mxPoint x="1485" y="465" />
            </Array>
          </mxGeometry>
        </mxCell>
        <mxCell id="TXIqby-uAPm9IPuSx5B3-66" value="Open Gallery" style="rounded=1;whiteSpace=wrap;html=1;arcSize=40;fontColor=#000000;fillColor=#ffffc0;strokeColor=#ff0000;" vertex="1" parent="1">
          <mxGeometry x="1335" y="380" width="120" height="40" as="geometry" />
        </mxCell>
        <mxCell id="TXIqby-uAPm9IPuSx5B3-67" value="" style="edgeStyle=orthogonalEdgeStyle;html=1;verticalAlign=bottom;endArrow=open;endSize=8;strokeColor=#ff0000;entryX=1;entryY=0.5;entryDx=0;entryDy=0;" edge="1" parent="1" source="TXIqby-uAPm9IPuSx5B3-66" target="TXIqby-uAPm9IPuSx5B3-68">
          <mxGeometry relative="1" as="geometry">
            <mxPoint x="1285" y="450" as="targetPoint" />
            <Array as="points">
              <mxPoint x="1395" y="455" />
            </Array>
          </mxGeometry>
        </mxCell>
        <mxCell id="TXIqby-uAPm9IPuSx5B3-68" value="Display Image" style="rounded=1;whiteSpace=wrap;html=1;arcSize=40;fontColor=#000000;fillColor=#ffffc0;strokeColor=#ff0000;" vertex="1" parent="1">
          <mxGeometry x="1135" y="435" width="120" height="40" as="geometry" />
        </mxCell>
        <mxCell id="TXIqby-uAPm9IPuSx5B3-69" value="" style="edgeStyle=orthogonalEdgeStyle;html=1;verticalAlign=bottom;endArrow=open;endSize=8;strokeColor=#ff0000;entryX=0.5;entryY=0;entryDx=0;entryDy=0;" edge="1" parent="1" source="TXIqby-uAPm9IPuSx5B3-68" target="TXIqby-uAPm9IPuSx5B3-70">
          <mxGeometry relative="1" as="geometry">
            <mxPoint x="1055" y="455" as="targetPoint" />
            <Array as="points">
              <mxPoint x="1010" y="455" />
            </Array>
          </mxGeometry>
        </mxCell>
        <mxCell id="TXIqby-uAPm9IPuSx5B3-70" value="Add Ingredient" style="rounded=1;whiteSpace=wrap;html=1;arcSize=40;fontColor=#000000;fillColor=#ffffc0;strokeColor=#ff0000;" vertex="1" parent="1">
          <mxGeometry x="950" y="494" width="120" height="40" as="geometry" />
        </mxCell>
        <mxCell id="TXIqby-uAPm9IPuSx5B3-71" value="" style="edgeStyle=orthogonalEdgeStyle;html=1;verticalAlign=bottom;endArrow=open;endSize=8;strokeColor=#ff0000;" edge="1" parent="1" source="TXIqby-uAPm9IPuSx5B3-70">
          <mxGeometry relative="1" as="geometry">
            <mxPoint x="1135" y="514" as="targetPoint" />
          </mxGeometry>
        </mxCell>
        <mxCell id="TXIqby-uAPm9IPuSx5B3-72" style="edgeStyle=orthogonalEdgeStyle;rounded=1;orthogonalLoop=1;jettySize=auto;html=1;exitX=0.5;exitY=1;exitDx=0;exitDy=0;entryX=1;entryY=0.5;entryDx=0;entryDy=0;strokeColor=#FF6666;endArrow=open;endFill=0;" edge="1" parent="1" source="TXIqby-uAPm9IPuSx5B3-73" target="TXIqby-uAPm9IPuSx5B3-74">
          <mxGeometry relative="1" as="geometry" />
        </mxCell>
        <mxCell id="TXIqby-uAPm9IPuSx5B3-73" value="Show Dialog for Ingredient selection" style="rounded=1;whiteSpace=wrap;html=1;arcSize=40;fontColor=#000000;fillColor=#ffffc0;strokeColor=#ff0000;" vertex="1" parent="1">
          <mxGeometry x="1135" y="494" width="120" height="40" as="geometry" />
        </mxCell>
        <mxCell id="TXIqby-uAPm9IPuSx5B3-74" value="Add another Ingredient?" style="rhombus;whiteSpace=wrap;html=1;fillColor=#ffffc0;strokeColor=#ff0000;" vertex="1" parent="1">
          <mxGeometry x="975" y="584" width="80" height="40" as="geometry" />
        </mxCell>
        <mxCell id="TXIqby-uAPm9IPuSx5B3-75" value="no" style="edgeStyle=orthogonalEdgeStyle;html=1;align=left;verticalAlign=bottom;endArrow=open;endSize=8;strokeColor=#ff0000;" edge="1" parent="1" source="TXIqby-uAPm9IPuSx5B3-74">
          <mxGeometry x="-0.4286" relative="1" as="geometry">
            <mxPoint x="1015" y="680" as="targetPoint" />
            <mxPoint as="offset" />
          </mxGeometry>
        </mxCell>
        <mxCell id="TXIqby-uAPm9IPuSx5B3-76" value="yes" style="edgeStyle=orthogonalEdgeStyle;html=1;align=left;verticalAlign=top;endArrow=open;endSize=8;strokeColor=#ff0000;" edge="1" parent="1" source="TXIqby-uAPm9IPuSx5B3-74">
          <mxGeometry x="-0.04" relative="1" as="geometry">
            <mxPoint x="1015" y="534" as="targetPoint" />
            <mxPoint as="offset" />
          </mxGeometry>
        </mxCell>
        <mxCell id="TXIqby-uAPm9IPuSx5B3-77" value="Add Material" style="rounded=1;whiteSpace=wrap;html=1;arcSize=40;fontColor=#000000;fillColor=#ffffc0;strokeColor=#ff0000;" vertex="1" parent="1">
          <mxGeometry x="950" y="680" width="120" height="40" as="geometry" />
        </mxCell>
        <mxCell id="TXIqby-uAPm9IPuSx5B3-78" value="" style="edgeStyle=orthogonalEdgeStyle;html=1;verticalAlign=bottom;endArrow=open;endSize=8;strokeColor=#ff0000;" edge="1" parent="1" source="TXIqby-uAPm9IPuSx5B3-77">
          <mxGeometry relative="1" as="geometry">
            <mxPoint x="1135" y="700" as="targetPoint" />
          </mxGeometry>
        </mxCell>
        <mxCell id="TXIqby-uAPm9IPuSx5B3-79" style="edgeStyle=orthogonalEdgeStyle;rounded=1;orthogonalLoop=1;jettySize=auto;html=1;exitX=0.5;exitY=1;exitDx=0;exitDy=0;entryX=1;entryY=0.5;entryDx=0;entryDy=0;strokeColor=#FF6666;endArrow=open;endFill=0;" edge="1" parent="1" source="TXIqby-uAPm9IPuSx5B3-80" target="TXIqby-uAPm9IPuSx5B3-81">
          <mxGeometry relative="1" as="geometry" />
        </mxCell>
        <mxCell id="TXIqby-uAPm9IPuSx5B3-80" value="Show Dialog for Material selection" style="rounded=1;whiteSpace=wrap;html=1;arcSize=40;fontColor=#000000;fillColor=#ffffc0;strokeColor=#ff0000;" vertex="1" parent="1">
          <mxGeometry x="1135" y="680" width="120" height="40" as="geometry" />
        </mxCell>
        <mxCell id="TXIqby-uAPm9IPuSx5B3-81" value="Add another Material?" style="rhombus;whiteSpace=wrap;html=1;fillColor=#ffffc0;strokeColor=#ff0000;" vertex="1" parent="1">
          <mxGeometry x="975" y="770" width="80" height="40" as="geometry" />
        </mxCell>
        <mxCell id="TXIqby-uAPm9IPuSx5B3-82" value="no" style="edgeStyle=orthogonalEdgeStyle;html=1;align=left;verticalAlign=bottom;endArrow=open;endSize=8;strokeColor=#ff0000;entryX=0.5;entryY=0;entryDx=0;entryDy=0;" edge="1" parent="1" source="TXIqby-uAPm9IPuSx5B3-81" target="TXIqby-uAPm9IPuSx5B3-85">
          <mxGeometry x="-0.2857" y="10" relative="1" as="geometry">
            <mxPoint x="1015" y="866" as="targetPoint" />
            <mxPoint as="offset" />
          </mxGeometry>
        </mxCell>
        <mxCell id="TXIqby-uAPm9IPuSx5B3-83" value="yes" style="edgeStyle=orthogonalEdgeStyle;html=1;align=left;verticalAlign=top;endArrow=open;endSize=8;strokeColor=#ff0000;" edge="1" parent="1" source="TXIqby-uAPm9IPuSx5B3-81">
          <mxGeometry x="-0.04" relative="1" as="geometry">
            <mxPoint x="1015" y="720" as="targetPoint" />
            <mxPoint as="offset" />
          </mxGeometry>
        </mxCell>
        <mxCell id="TXIqby-uAPm9IPuSx5B3-84" style="edgeStyle=orthogonalEdgeStyle;rounded=1;orthogonalLoop=1;jettySize=auto;html=1;exitX=0.5;exitY=1;exitDx=0;exitDy=0;entryX=0.5;entryY=0;entryDx=0;entryDy=0;endArrow=open;endFill=0;strokeColor=#FF6666;" edge="1" parent="1" source="TXIqby-uAPm9IPuSx5B3-85" target="TXIqby-uAPm9IPuSx5B3-86">
          <mxGeometry relative="1" as="geometry" />
        </mxCell>
        <mxCell id="TXIqby-uAPm9IPuSx5B3-85" value="Add Recipe Steps" style="rounded=1;whiteSpace=wrap;html=1;arcSize=40;fontColor=#000000;fillColor=#ffffc0;strokeColor=#ff0000;" vertex="1" parent="1">
          <mxGeometry x="955" y="860" width="120" height="40" as="geometry" />
        </mxCell>
        <mxCell id="TXIqby-uAPm9IPuSx5B3-86" value="Press Save" style="rounded=1;whiteSpace=wrap;html=1;arcSize=40;fontColor=#000000;fillColor=#ffffc0;strokeColor=#ff0000;" vertex="1" parent="1">
          <mxGeometry x="955" y="920" width="120" height="40" as="geometry" />
        </mxCell>
        <mxCell id="TXIqby-uAPm9IPuSx5B3-87" value="" style="edgeStyle=orthogonalEdgeStyle;html=1;verticalAlign=bottom;endArrow=open;endSize=8;strokeColor=#ff0000;" edge="1" parent="1" source="TXIqby-uAPm9IPuSx5B3-86">
          <mxGeometry relative="1" as="geometry">
            <mxPoint x="1375" y="940" as="targetPoint" />
          </mxGeometry>
        </mxCell>
        <mxCell id="TXIqby-uAPm9IPuSx5B3-88" value="Is Formular accepptable?" style="rhombus;whiteSpace=wrap;html=1;fillColor=#ffffc0;strokeColor=#ff0000;" vertex="1" parent="1">
          <mxGeometry x="1375" y="920" width="80" height="40" as="geometry" />
        </mxCell>
        <mxCell id="TXIqby-uAPm9IPuSx5B3-89" value="no" style="edgeStyle=orthogonalEdgeStyle;html=1;align=left;verticalAlign=bottom;endArrow=open;endSize=8;strokeColor=#ff0000;entryX=1;entryY=0.5;entryDx=0;entryDy=0;" edge="1" parent="1" source="TXIqby-uAPm9IPuSx5B3-88" target="TXIqby-uAPm9IPuSx5B3-97">
          <mxGeometry x="-0.3331" y="-20" relative="1" as="geometry">
            <mxPoint x="1215" y="840" as="targetPoint" />
            <Array as="points">
              <mxPoint x="1415" y="1000" />
            </Array>
            <mxPoint as="offset" />
          </mxGeometry>
        </mxCell>
        <mxCell id="TXIqby-uAPm9IPuSx5B3-90" value="yes" style="edgeStyle=orthogonalEdgeStyle;html=1;align=left;verticalAlign=top;endArrow=open;endSize=8;strokeColor=#ff0000;entryX=1;entryY=0.5;entryDx=0;entryDy=0;" edge="1" parent="1" source="TXIqby-uAPm9IPuSx5B3-88" target="TXIqby-uAPm9IPuSx5B3-92">
          <mxGeometry x="-1" relative="1" as="geometry">
            <mxPoint x="1415" y="1020" as="targetPoint" />
            <Array as="points">
              <mxPoint x="1505" y="940" />
              <mxPoint x="1505" y="1060" />
            </Array>
          </mxGeometry>
        </mxCell>
        <mxCell id="TXIqby-uAPm9IPuSx5B3-91" style="edgeStyle=orthogonalEdgeStyle;rounded=1;orthogonalLoop=1;jettySize=auto;html=1;exitX=0;exitY=0.5;exitDx=0;exitDy=0;entryX=1;entryY=0.5;entryDx=0;entryDy=0;endArrow=open;endFill=0;strokeColor=#FF6666;" edge="1" parent="1" source="TXIqby-uAPm9IPuSx5B3-92" target="TXIqby-uAPm9IPuSx5B3-94">
          <mxGeometry relative="1" as="geometry" />
        </mxCell>
        <mxCell id="TXIqby-uAPm9IPuSx5B3-92" value="Store Recipe" style="rounded=1;whiteSpace=wrap;html=1;arcSize=40;fontColor=#000000;fillColor=#ffffc0;strokeColor=#ff0000;" vertex="1" parent="1">
          <mxGeometry x="1355" y="1040" width="120" height="40" as="geometry" />
        </mxCell>
        <mxCell id="TXIqby-uAPm9IPuSx5B3-93" style="edgeStyle=orthogonalEdgeStyle;rounded=1;orthogonalLoop=1;jettySize=auto;html=1;exitX=0.5;exitY=1;exitDx=0;exitDy=0;entryX=0.5;entryY=0;entryDx=0;entryDy=0;endArrow=open;endFill=0;strokeColor=#FF6666;" edge="1" parent="1" source="TXIqby-uAPm9IPuSx5B3-94" target="TXIqby-uAPm9IPuSx5B3-100">
          <mxGeometry relative="1" as="geometry" />
        </mxCell>
        <mxCell id="TXIqby-uAPm9IPuSx5B3-94" value="Show Recipe" style="rounded=1;whiteSpace=wrap;html=1;arcSize=40;fontColor=#000000;fillColor=#ffffc0;strokeColor=#ff0000;" vertex="1" parent="1">
          <mxGeometry x="1155" y="1040" width="120" height="40" as="geometry" />
        </mxCell>
        <mxCell id="TXIqby-uAPm9IPuSx5B3-95" value="" style="edgeStyle=orthogonalEdgeStyle;html=1;verticalAlign=bottom;endArrow=open;endSize=8;strokeColor=#ff0000;" edge="1" parent="1">
          <mxGeometry relative="1" as="geometry">
            <mxPoint x="1215" y="1140" as="targetPoint" />
            <mxPoint x="1215" y="1140" as="sourcePoint" />
          </mxGeometry>
        </mxCell>
        <mxCell id="TXIqby-uAPm9IPuSx5B3-96" value="" style="edgeStyle=orthogonalEdgeStyle;rounded=1;orthogonalLoop=1;jettySize=auto;html=1;endArrow=open;endFill=0;strokeColor=#FF6666;" edge="1" parent="1" source="TXIqby-uAPm9IPuSx5B3-97" target="TXIqby-uAPm9IPuSx5B3-99">
          <mxGeometry relative="1" as="geometry" />
        </mxCell>
        <mxCell id="TXIqby-uAPm9IPuSx5B3-97" value="Show Dialog: No valid Recipe" style="rounded=1;whiteSpace=wrap;html=1;arcSize=40;fontColor=#000000;fillColor=#ffffc0;strokeColor=#ff0000;" vertex="1" parent="1">
          <mxGeometry x="1155" y="980" width="120" height="40" as="geometry" />
        </mxCell>
        <mxCell id="TXIqby-uAPm9IPuSx5B3-98" style="edgeStyle=orthogonalEdgeStyle;rounded=1;orthogonalLoop=1;jettySize=auto;html=1;exitX=0.5;exitY=0;exitDx=0;exitDy=0;entryX=0.5;entryY=1;entryDx=0;entryDy=0;endArrow=open;endFill=0;strokeColor=#FF6666;" edge="1" parent="1" source="TXIqby-uAPm9IPuSx5B3-99" target="TXIqby-uAPm9IPuSx5B3-86">
          <mxGeometry relative="1" as="geometry" />
        </mxCell>
        <mxCell id="TXIqby-uAPm9IPuSx5B3-99" value="Fix Errors" style="rounded=1;whiteSpace=wrap;html=1;arcSize=40;fontColor=#000000;fillColor=#ffffc0;strokeColor=#ff0000;" vertex="1" parent="1">
          <mxGeometry x="955" y="980" width="120" height="40" as="geometry" />
        </mxCell>
        <mxCell id="TXIqby-uAPm9IPuSx5B3-100" value="" style="ellipse;html=1;shape=endState;fillColor=#000000;strokeColor=#ff0000;" vertex="1" parent="1">
          <mxGeometry x="1200" y="1110" width="30" height="30" as="geometry" />
        </mxCell>
        <mxCell id="TXIqby-uAPm9IPuSx5B3-101" value="" style="endArrow=none;dashed=1;html=1;" edge="1" parent="1">
          <mxGeometry width="50" height="50" relative="1" as="geometry">
            <mxPoint x="1100" y="1160" as="sourcePoint" />
            <mxPoint x="1100" y="10" as="targetPoint" />
          </mxGeometry>
        </mxCell>
        <mxCell id="TXIqby-uAPm9IPuSx5B3-102" value="" style="endArrow=none;dashed=1;html=1;" edge="1" parent="1">
          <mxGeometry width="50" height="50" relative="1" as="geometry">
            <mxPoint x="1309.9999999999998" y="1160" as="sourcePoint" />
            <mxPoint x="1309.9999999999998" y="10" as="targetPoint" />
          </mxGeometry>
        </mxCell>
        <mxCell id="TXIqby-uAPm9IPuSx5B3-103" value="User" style="text;html=1;strokeColor=none;fillColor=none;align=center;verticalAlign=middle;whiteSpace=wrap;rounded=0;" vertex="1" parent="1">
          <mxGeometry x="990" y="10" width="40" height="20" as="geometry" />
        </mxCell>
        <mxCell id="TXIqby-uAPm9IPuSx5B3-104" value="UI" style="text;html=1;strokeColor=none;fillColor=none;align=center;verticalAlign=middle;whiteSpace=wrap;rounded=0;" vertex="1" parent="1">
          <mxGeometry x="1195" y="10" width="40" height="20" as="geometry" />
        </mxCell>
        <mxCell id="TXIqby-uAPm9IPuSx5B3-105" value="System" style="text;html=1;strokeColor=none;fillColor=none;align=center;verticalAlign=middle;whiteSpace=wrap;rounded=0;" vertex="1" parent="1">
          <mxGeometry x="1390" y="10" width="40" height="20" as="geometry" />
        </mxCell>
      </root>
    </mxGraphModel>
  </diagram>
</mxfile>
